<?xml version="1.0" standalone="no"?>
<!DOCTYPE svg PUBLIC "-//W3C//DTD SVG 1.1//EN" "http://www.w3.org/Graphics/SVG/1.1/DTD/svg11.dtd" >
<svg>
<metadata>
Created by FontForge 20100429 at Thu Aug 18 16:13:01 2011
 By www-data
Typeface (c) The Monotype Corporation plc. Data (c) The Monotype Corporation plc / Type Solutions Inc. 1990-91 All Rights Reserved
</metadata>
<defs>
<font id="CenturyGothic" horiz-adv-x="1135" >
  <font-face 
    font-family="Century Gothic"
    font-weight="400"
    font-stretch="normal"
    units-per-em="2048"
    panose-1="2 11 5 2 2 2 2 2 2 4"
    ascent="1638"
    descent="-410"
    x-height="28"
    bbox="-64 -1598 1870 451.268"
    underline-thickness="119"
    underline-position="-138"
    unicode-range="U+0020-007E"
  />
    <missing-glyph />
    <glyph glyph-name="space" unicode=" " horiz-adv-x="567" 
 />
    <glyph glyph-name="exclam" unicode="!" horiz-adv-x="604" 
d="M373 -1508v1140h-145v-1140h145zM179 -96c0 -67 57 -124 123 -124s123 57 123 124c0 66 -57 124 -123 124s-123 -58 -123 -124z" />
    <glyph glyph-name="quotedbl" unicode="&#x22;" horiz-adv-x="633" 
d="M562 -1045h-103l-22 -463h148zM174 -1045h-104l-22 -463h148z" />
    <glyph glyph-name="numbersign" unicode="#" horiz-adv-x="1475" 
d="M1233 -602v108h-248l-72 494h-112l72 -494h-333l-76 494h-110l76 -494h-246v-108h263l51 -334h-253v-109h269l70 -468h107l-68 468h332l68 -468h112l-69 468h224v109h-240l-48 334h231zM940 -936h-334l-49 334h332z" />
    <glyph glyph-name="dollar" unicode="$" 
d="M531 -1574h131v109c149 30 221 90 301 200l-108 87c-51 -79 -116 -127 -193 -144v499c175 92 283 167 326 224c97 127 115 310 22 445c-76 111 -173 170 -348 190v313h-131v-313c-167 -14 -242 -45 -341 -126c-47 -38 -87 -85 -118 -136l107 -81c93 123 210 191 352 205
v-619c-105 -51 -171 -86 -199 -105c-98 -69 -167 -145 -167 -293c0 -135 76 -237 167 -292c52 -32 118 -52 199 -60v-103zM531 -1332c-133 10 -220 79 -220 210c0 48 14 89 42 122c37 45 97 86 178 123v-455zM662 -106c137 -14 266 -111 266 -247c0 -57 -19 -110 -56 -159
s-107 -101 -210 -156v562z" />
    <glyph glyph-name="percent" unicode="%" horiz-adv-x="1587" 
d="M793 -1462c201 -6 284 -23 470 -74h118l-1072 1638h-132l975 -1492c-115 28 -256 42 -422 42l-54 -1c165 220 -22 535 -287 535c-252 0 -431 -284 -298 -520c51 -90 168 -174 298 -174c116 0 265 50 404 46zM612 -1161c0 -117 -103 -220 -220 -220s-219 103 -219 220
s102 219 219 219s220 -102 220 -219zM849 -303c0 -184 162 -346 346 -346s346 162 346 346s-162 346 -346 346s-346 -162 -346 -346zM1415 -303c0 -117 -103 -219 -220 -219s-219 102 -219 219s102 219 219 219s220 -102 220 -219z" />
    <glyph glyph-name="ampersand" unicode="&#x26;" horiz-adv-x="1550" 
d="M671 -1418c179 7 324 98 324 269c0 49 -17 101 -52 157s-103 127 -205 214l223 234l153 153l178 -153l100 106c-64 57 -122 106 -173 147c0 0 199 199 278 291h-205l-189 -197c-127 96 -228 159 -305 189s-158 45 -243 45c-212 0 -378 -140 -376 -341
c0 -73 23 -146 69 -220s141 -167 284 -280c-81 -97 -131 -171 -156 -216c-116 -214 78 -407 295 -398zM665 -1277c-120 0 -221 94 -156 203c33 57 79 119 138 186c71 -55 125 -110 161 -163c25 -38 38 -72 38 -101c0 -79 -89 -125 -181 -125zM326 -314
c-2 116 121 213 245 213c52 0 103 -11 153 -32c79 -34 172 -89 279 -166c0 0 -255 -257 -374 -394c-125 94 -206 169 -245 225s-58 107 -58 154z" />
    <glyph glyph-name="quotesingle" unicode="'" horiz-adv-x="405" 
d="M254 -1045h-103l-22 -463h148z" />
    <glyph glyph-name="parenleft" unicode="(" horiz-adv-x="756" 
d="M267 -495c1 -395 78 -758 203 -1041h162c-126 258 -216 640 -216 1022c0 348 64 696 167 940h-154c-98 -236 -163 -582 -162 -921z" />
    <glyph glyph-name="parenright" unicode=")" horiz-adv-x="756" 
d="M489 -614c-1 394 -79 758 -203 1040h-162c128 -257 216 -640 216 -1022c0 -348 -64 -696 -167 -940h154c100 236 163 583 162 922z" />
    <glyph glyph-name="asterisk" unicode="*" horiz-adv-x="870" 
d="M369 -1508h130l-29 297l246 -176l66 112l-277 125l277 123l-66 113l-246 -174l29 297h-130l31 -297l-246 174l-66 -113l281 -123l-281 -125l66 -112l246 176z" />
    <glyph glyph-name="plus" unicode="+" horiz-adv-x="1241" 
d="M552 -804v-434h137v434h438v137h-438v434h-137v-434h-437v-137h437z" />
    <glyph glyph-name="comma" unicode="," horiz-adv-x="567" 
d="M295 -270l135 64l-203 378l-99 -42z" />
    <glyph glyph-name="hyphen" unicode="-" horiz-adv-x="680" 
d="M65 -614h550v122h-550v-122z" />
    <glyph glyph-name="hyphen" unicode="&#xad;" horiz-adv-x="680" 
d="M65 -614h550v122h-550v-122z" />
    <glyph glyph-name="period" unicode="." horiz-adv-x="567" 
d="M187 -96c0 -67 57 -124 123 -124s123 57 123 124c0 66 -57 124 -123 124s-123 -58 -123 -124z" />
    <glyph glyph-name="slash" unicode="/" horiz-adv-x="895" 
d="M836 -1508l-611 1708h-153l610 -1708h154z" />
    <glyph glyph-name="zero" unicode="0" 
d="M128 -286c-79 -188 -78 -711 0 -899c75 -180 208 -323 431 -323c229 0 364 145 443 330c85 197 84 686 0 884c-78 185 -214 331 -443 331c-224 0 -355 -142 -431 -323zM249 -1110c-57 145 -55 607 -1 754c51 140 156 260 316 260c294 0 364 -312 367 -636
c3 -261 -52 -464 -185 -570c-112 -89 -253 -87 -366 0c-57 44 -98 108 -131 192z" />
    <glyph glyph-name="one" unicode="1" 
d="M379 -1471h289v1471h-146v-1327h-231z" />
    <glyph glyph-name="two" unicode="2" 
d="M578 -1368c-204 5 -330 152 -341 358h-141c-1 -275 215 -498 490 -498c343 0 569 364 394 674c-41 72 -118 172 -233 297l-366 395h679v142h-999l562 -607c114 -122 189 -212 223 -271s51 -122 51 -187c0 -164 -150 -307 -319 -303z" />
    <glyph glyph-name="three" unicode="3" 
d="M552 -1365c-163 8 -226 93 -281 235h-150c44 -215 194 -378 431 -378s423 150 423 380c0 127 -63 227 -189 301c146 53 276 210 270 388c-10 283 -207 476 -501 476c-279 0 -440 -175 -483 -431h144c45 183 142 278 341 288c255 13 451 -261 305 -482
c-79 -119 -175 -148 -382 -160v-135c178 -6 338 -75 342 -246c3 -133 -128 -243 -270 -236z" />
    <glyph glyph-name="four" unicode="4" 
d="M872 -1508h30v1025h178v141h-178v342h-147v-342h-703zM755 -483v-613l-433 613h433z" />
    <glyph glyph-name="five" unicode="5" 
d="M894 -485c0 -198 -143 -335 -345 -335c-87 0 -192 26 -315 79l136 -730h637v140h-524l-73 401c343 -115 640 122 635 451c-3 206 -110 374 -249 451c-171 95 -430 86 -566 -44c-79 -76 -131 -168 -147 -284h151c28 157 136 249 307 256c196 8 353 -180 353 -385z" />
    <glyph glyph-name="six" unicode="6" 
d="M584 37c-265 0 -446 -186 -446 -450c0 -189 67 -280 167 -429l446 -666l121 79l-397 602c383 -144 709 279 510 641c-68 123 -220 223 -401 223zM899 -415c0 -166 -143 -310 -309 -310s-309 144 -309 310c0 165 144 309 309 309s309 -144 309 -309z" />
    <glyph glyph-name="seven" unicode="7" 
d="M147 -1471h933l-787 1508l-121 -62l680 -1307h-705v-139z" />
    <glyph glyph-name="eight" unicode="8" 
d="M997 -1120c0 162 -91 247 -210 313c99 49 170 106 213 169s65 135 65 216c-3 268 -215 459 -500 459c-163 0 -285 -47 -370 -139c-136 -146 -171 -358 -60 -530c43 -66 117 -124 220 -175c-121 -61 -216 -160 -216 -317c0 -231 194 -384 436 -384c239 0 422 156 422 388z
M849 -1126c0 -135 -121 -239 -281 -239c-147 0 -280 105 -280 242c0 131 147 263 285 257c156 -7 276 -109 276 -260zM918 -419c2 -165 -169 -314 -343 -314c-187 0 -365 151 -358 328c7 191 147 298 350 303c196 5 349 -138 351 -317z" />
    <glyph glyph-name="nine" unicode="9" 
d="M559 -1508c265 0 447 187 447 450c0 190 -67 281 -167 430l-446 665l-121 -78l397 -602c-384 141 -708 -280 -510 -641c67 -122 220 -224 400 -224zM244 -1055c0 165 144 309 309 309c166 0 310 -143 310 -309s-144 -309 -310 -309c-165 0 -309 144 -309 309z" />
    <glyph glyph-name="colon" unicode=":" horiz-adv-x="567" 
d="M187 -992c0 -66 57 -124 123 -124s123 57 123 124s-57 124 -123 124s-123 -57 -123 -124zM187 -96c0 -67 57 -124 123 -124s123 57 123 124c0 66 -57 124 -123 124s-123 -58 -123 -124z" />
    <glyph glyph-name="semicolon" unicode=";" horiz-adv-x="567" 
d="M187 -992c0 -66 57 -124 123 -124s123 57 123 124s-57 124 -123 124s-123 -57 -123 -124zM295 -270l135 64l-203 378l-99 -42z" />
    <glyph glyph-name="semicolon" unicode="&#x37e;" horiz-adv-x="567" 
d="M187 -992c0 -66 57 -124 123 -124s123 57 123 124s-57 124 -123 124s-123 -57 -123 -124zM295 -270l135 64l-203 378l-99 -42z" />
    <glyph glyph-name="less" unicode="&#x3c;" horiz-adv-x="1241" 
d="M1137 -347v146l-1033 -469v-130l1033 -471v147l-839 390z" />
    <glyph glyph-name="equal" unicode="=" horiz-adv-x="1241" 
d="M1127 -1024v137h-1012v-137h1012zM1127 -584v137h-1012v-137h1012z" />
    <glyph glyph-name="greater" unicode="&#x3e;" horiz-adv-x="1241" 
d="M104 -347l839 -387l-839 -390v-147l1033 471v130l-1033 469v-146z" />
    <glyph glyph-name="question" unicode="?" horiz-adv-x="1210" 
d="M610 -1368c-177 4 -294 106 -295 297h-145c-1 -264 174 -437 438 -437c235 0 420 132 420 345c0 112 -56 177 -123 237c-58 51 -421 178 -453 224c-110 105 18 252 161 244s202 -74 217 -212h146c-6 216 -143 352 -363 352c-234 0 -432 -185 -327 -404
c53 -110 111 -118 257 -181c143 -61 236 -103 277 -132c40 -29 60 -71 60 -126c-2 -128 -126 -210 -270 -207zM484 -96c0 -67 57 -124 123 -124s123 57 123 124c0 66 -57 124 -123 124s-123 -58 -123 -124z" />
    <glyph glyph-name="at" unicode="@" horiz-adv-x="1776" 
d="M928 -61c256 0 359 -89 516 -240h106c-89 111 -172 189 -248 234c-222 132 -547 118 -773 -9c-218 -123 -392 -359 -392 -674c0 -314 175 -568 389 -688c290 -162 682 -124 904 92c136 132 208 279 208 450c0 265 -139 441 -321 533c-75 39 -140 58 -193 58
c-72 0 -120 -30 -119 -111c-40 52 -128 101 -217 101c-196 0 -332 -158 -332 -363c0 -118 38 -226 114 -323s181 -146 314 -146c141 0 195 52 260 148l26 -138h108s-88 459 -121 695c-4 30 21 49 50 49c39 0 90 -23 153 -69c116 -83 196 -225 200 -414
c6 -329 -303 -583 -645 -576c-286 6 -496 147 -607 342c-121 212 -121 493 0 704c111 194 332 345 620 345zM600 -696c0 153 93 270 238 268c185 -3 255 -203 260 -385c4 -127 -80 -227 -203 -227c-166 0 -295 166 -295 344z" />
    <glyph glyph-name="A" unicode="A" horiz-adv-x="1515" 
d="M780 -1471l686 1471h-158l-231 -484h-634l-230 484h-164l695 -1471h36zM762 -1159l-253 533h503z" />
    <glyph glyph-name="B" unicode="B" horiz-adv-x="1176" 
d="M1030 -584c133 308 -120 584 -443 584h-404v-1471h290c221 0 333 43 417 169c38 57 55 121 55 191c0 151 -80 252 -189 309c139 47 223 100 274 218zM792 -1111c0 -157 -115 -218 -295 -216h-170v471h84c185 -1 268 -21 339 -118c29 -40 42 -87 42 -137zM327 -708v564
h182c197 -1 281 -25 357 -130c69 -96 57 -232 -19 -316c-43 -48 -101 -82 -176 -100c-50 -12 -137 -18 -261 -18h-83z" />
    <glyph glyph-name="C" unicode="C" horiz-adv-x="1665" 
d="M111 -744c0 -427 360 -773 794 -764c295 6 516 130 644 310l-116 89c-113 -149 -283 -254 -526 -254c-254 0 -463 140 -559 311c-54 96 -82 202 -82 321c0 355 290 629 650 629c206 0 378 -81 517 -242l116 88c-134 172 -350 293 -642 293c-257 0 -460 -86 -609 -257
c-125 -145 -187 -319 -187 -524z" />
    <glyph glyph-name="D" unicode="D" horiz-adv-x="1524" 
d="M179 0v-1471h305c220 0 379 19 479 53c270 92 455 348 455 701c0 296 -149 537 -344 637c-102 53 -244 80 -427 80h-468zM320 -139h170c203 0 344 -13 423 -38c213 -67 356 -262 356 -538c0 -293 -157 -503 -390 -571c-92 -27 -244 -42 -455 -42h-104v1189z" />
    <glyph glyph-name="E" unicode="E" horiz-adv-x="1098" 
d="M180 -1471h843v145h-696v460h690v144h-690v577h690v145h-837v-1471z" />
    <glyph glyph-name="F" unicode="F" horiz-adv-x="993" 
d="M179 -1471h737v145h-591v460h591v145h-591v721h-146v-1471z" />
    <glyph glyph-name="G" unicode="G" horiz-adv-x="1786" 
d="M1685 -705c4 445 -294 742 -739 742c-272 0 -485 -95 -646 -278c-207 -235 -243 -598 -78 -884c127 -220 371 -383 702 -383c307 0 493 114 674 284l-114 108c-134 -134 -322 -246 -555 -246c-253 0 -473 145 -572 316c-113 195 -112 428 3 622c106 180 320 318 590 321
c299 3 538 -196 570 -460h-469v-142h634z" />
    <glyph glyph-name="H" unicode="H" horiz-adv-x="1399" 
d="M177 -1471h148v617h748v-617h148v1471h-148v-710h-748v710h-148v-1471z" />
    <glyph glyph-name="I" unicode="I" horiz-adv-x="463" 
d="M158 -1471h147v1471h-147v-1471z" />
    <glyph glyph-name="J" unicode="J" horiz-adv-x="987" 
d="M660 -1471h148v993c0 153 -12 258 -36 318c-45 115 -160 202 -319 197c-169 -5 -250 -63 -367 -156l78 -117c77 54 141 90 191 114c125 60 258 -17 285 -117c11 -43 20 -123 20 -244v-988z" />
    <glyph glyph-name="K" unicode="K" horiz-adv-x="1210" 
d="M179 -1471h150v552l587 -552h199l-707 660l762 811h-195l-646 -686v686h-150v-1471z" />
    <glyph glyph-name="L" unicode="L" horiz-adv-x="946" 
d="M179 -1471h148v1329h565v142h-713v-1471z" />
    <glyph glyph-name="M" unicode="M" horiz-adv-x="1882" 
d="M112 0l209 -1471h24l598 1207l592 -1207h24l211 1471h-145l-144 -1052l-520 1052h-37l-527 -1060l-143 1060h-142z" />
    <glyph glyph-name="N" unicode="N" horiz-adv-x="1515" 
d="M180 0v-1471h32l978 1126v-1126h145v1471h-33l-970 -1112v1112h-152z" />
    <glyph glyph-name="O" unicode="O" horiz-adv-x="1780" 
d="M892 37c-419 0 -785 -352 -777 -766c6 -310 171 -558 382 -677c119 -67 246 -102 383 -102c430 0 784 346 784 772c0 417 -354 773 -772 773zM268 -729c0 336 286 630 619 623c250 -5 447 -139 543 -310c105 -186 106 -451 0 -636c-95 -166 -299 -312 -543 -312
c-242 0 -444 146 -537 314c-53 97 -82 203 -82 321z" />
    <glyph glyph-name="P" unicode="P" horiz-adv-x="1212" 
d="M178 -1471c0 0 530 -4 633 22c159 41 286 172 286 370c0 205 -122 331 -293 371c-67 16 -191 24 -374 24h-105v684h-147v-1471zM325 -1328v500l249 3c182 -2 263 -19 331 -117c54 -78 55 -194 0 -272c-68 -97 -139 -114 -320 -114h-260z" />
    <glyph glyph-name="Q" unicode="Q" horiz-adv-x="1784" 
d="M1666 -735c-7 267 -101 430 -253 575l218 276h-181l-150 -190c-120 74 -255 111 -406 111c-419 0 -785 -352 -777 -766c6 -310 172 -559 383 -677c119 -67 249 -102 390 -102c423 0 787 351 776 773zM270 -729c-8 336 285 623 618 623c117 0 223 -28 320 -85l-328 -416
h179l263 332c128 -125 192 -278 192 -461c0 -259 -135 -442 -311 -543c-194 -111 -430 -112 -623 -1c-175 101 -304 292 -310 551z" />
    <glyph glyph-name="R" unicode="R" horiz-adv-x="1243" 
d="M187 -1471c0 0 521 -4 625 20c164 38 297 174 295 371c-1 173 -90 293 -218 348c-70 31 -167 47 -290 48l529 684h-182l-528 -684h-84v684h-147v-1471zM334 -1327v500l253 2c178 -1 261 -20 327 -117c53 -78 55 -195 0 -272c-69 -97 -139 -113 -321 -113h-259z" />
    <glyph glyph-name="S" unicode="S" horiz-adv-x="1020" 
d="M888 -359c0 212 -199 396 -417 396c-89 0 -170 -23 -243 -71s-140 -128 -201 -240l125 -75c88 162 190 243 305 243c154 0 272 -98 272 -250c0 -49 -17 -98 -50 -145c-46 -65 -130 -144 -252 -236c-123 -93 -199 -160 -229 -201c-52 -70 -78 -144 -78 -225
c0 -209 148 -345 357 -345c69 0 135 18 195 52s124 97 191 189l-120 91c-55 -73 -103 -121 -141 -145c-134 -86 -338 -6 -330 152c5 92 36 132 93 191c19 19 83 68 190 147c127 94 215 178 262 251s71 147 71 221z" />
    <glyph glyph-name="T" unicode="T" horiz-adv-x="872" 
d="M33 -1328v-143h807v143h-328v1328h-150v-1328h-329z" />
    <glyph glyph-name="U" unicode="U" horiz-adv-x="1341" 
d="M184 -1471h147v888c0 105 2 171 6 197c18 128 70 194 174 244c99 48 207 54 307 8c89 -41 150 -116 178 -219c10 -37 15 -114 15 -230v-888h147v888c-4 272 -38 405 -192 530c-149 122 -429 112 -585 5c-84 -58 -141 -132 -170 -225c-18 -57 -27 -161 -27 -310v-888z" />
    <glyph glyph-name="V" unicode="V" horiz-adv-x="1438" 
d="M67 -1471h160l487 1137l496 -1137h160l-640 1471h-32z" />
    <glyph glyph-name="W" unicode="W" horiz-adv-x="1966" 
d="M96 -1471h151l299 1060l422 -1060h30l417 1060l305 -1060h150l-422 1471h-28l-436 -1113l-445 1113h-28z" />
    <glyph glyph-name="X" unicode="X" horiz-adv-x="1247" 
d="M101 -1471h172l352 574l355 -574h170l-438 713l467 758h-172l-382 -617l-384 617h-172l469 -758z" />
    <glyph glyph-name="Y" unicode="Y" horiz-adv-x="1212" 
d="M63 -1471h170l376 606l370 -606h170l-466 768v703h-145v-703z" />
    <glyph glyph-name="Z" unicode="Z" horiz-adv-x="983" 
d="M122 -1329v-142h776l-615 1328h584v143h-811l619 -1329h-553z" />
    <glyph glyph-name="bracketleft" unicode="[" horiz-adv-x="719" 
d="M290 -1508h336v142h-196v1627h196v137h-336v-1906z" />
    <glyph glyph-name="backslash" unicode="\" horiz-adv-x="1239" 
d="M220 -1508l952 1708h-153l-953 -1708h154z" />
    <glyph glyph-name="bracketright" unicode="]" horiz-adv-x="719" 
d="M429 398h-336v-142h195v-1627h-195v-137h336v1906z" />
    <glyph glyph-name="asciicircum" unicode="^" horiz-adv-x="1376" 
d="M629 -1471h118l510 1106h-133l-439 -952l-436 952h-129z" />
    <glyph glyph-name="underscore" unicode="_" horiz-adv-x="1024" 
d="M-12 154h1048v102h-1048v-102z" />
    <glyph glyph-name="grave" unicode="`" horiz-adv-x="774" 
d="M326 -1598l218 308h-138l-295 -308h215z" />
    <glyph glyph-name="a" unicode="a" horiz-adv-x="1399" 
d="M669 -1116c208 6 337 95 433 228v-200h138v1088h-138v-187c-103 124 -233 210 -437 215c-302 8 -558 -269 -558 -575c0 -302 262 -577 562 -569zM1111 -538c6 -242 -192 -448 -431 -443c-175 4 -306 97 -374 219c-77 138 -76 302 1 440c68 122 199 222 372 222
c254 0 426 -176 432 -438z" />
    <glyph glyph-name="b" unicode="b" horiz-adv-x="1397" 
d="M736 28c-207 -6 -335 -95 -432 -228v200h-139v-1508h139v607c103 -125 231 -209 436 -215c302 -8 558 269 558 574c0 303 -261 578 -562 570zM294 -550c-5 242 192 448 431 443c175 -4 305 -97 373 -219c77 -138 77 -303 0 -441c-68 -122 -199 -222 -371 -222
c-254 0 -427 176 -433 439z" />
    <glyph glyph-name="c" unicode="c" horiz-adv-x="1325" 
d="M703 28c-325 7 -608 -249 -598 -563c12 -350 251 -581 609 -581c237 0 408 98 498 254l-111 69c-96 -127 -227 -191 -393 -191c-251 0 -471 195 -462 439c9 266 190 445 463 445c160 0 291 -64 392 -191l111 73c-96 147 -274 241 -509 246z" />
    <glyph glyph-name="d" unicode="d" horiz-adv-x="1403" 
d="M671 -1116c208 6 337 95 433 228v-620h138v1508h-138v-187c-103 124 -233 210 -437 215c-302 8 -558 -269 -558 -575c0 -302 262 -577 562 -569zM1113 -538c6 -242 -192 -448 -431 -443c-175 4 -306 97 -374 219c-77 138 -76 302 1 440c68 122 199 222 372 222
c254 0 426 -176 432 -438z" />
    <glyph glyph-name="e" unicode="e" horiz-adv-x="1331" 
d="M248 -533c-5 294 271 519 572 404c131 -50 174 -105 252 -232l118 62c-100 192 -243 327 -520 327c-177 0 -314 -60 -416 -174c-189 -211 -200 -542 -23 -764c108 -136 251 -206 431 -206c316 0 568 245 564 583h-978zM1072 -654c-37 -147 -100 -230 -223 -287
c-158 -74 -343 -46 -460 62c-55 51 -98 125 -127 225h810z" />
    <glyph glyph-name="f" unicode="f" horiz-adv-x="643" 
d="M604 -1508v137c-77 -31 -137 -53 -200 -17c-53 31 -41 48 -41 153v147h227v120h-228v968h-140v-968h-143v-120h143s-6 -274 22 -337c29 -65 101 -112 197 -111c45 0 100 9 163 28z" />
    <glyph glyph-name="g" unicode="g" horiz-adv-x="1378" 
d="M662 -1116c207 0 320 87 431 217v-189h141v867c0 153 -15 264 -40 335c-69 193 -259 312 -518 312c-184 0 -340 -58 -433 -146c-47 -44 -90 -109 -129 -194h152c79 136 196 209 403 212c180 2 323 -76 382 -188c28 -54 42 -141 42 -261v-56c-91 118 -242 207 -435 207
c-325 0 -558 -223 -558 -552c0 -225 126 -401 282 -488c89 -50 182 -76 280 -76zM672 -132c251 0 431 -172 428 -421c-2 -178 -86 -305 -207 -372c-66 -37 -137 -56 -213 -56c-258 0 -432 179 -439 436c-7 238 187 413 431 413z" />
    <glyph glyph-name="h" unicode="h" horiz-adv-x="1249" 
d="M296 -893c97 -126 213 -220 408 -223c173 -3 303 101 356 228c29 70 45 179 45 328v560h-140v-519c0 -125 -5 -209 -15 -251c-32 -135 -115 -216 -274 -217c-178 -2 -325 143 -360 292c-12 54 -20 152 -20 296v399h-140v-1508h140v615z" />
    <glyph glyph-name="i" unicode="i" horiz-adv-x="410" 
d="M90 -1420c0 -61 54 -116 115 -116c62 0 116 54 116 116c0 61 -55 115 -116 115c-60 0 -115 -55 -115 -115zM135 -1088h141v1088h-141v-1088z" />
    <glyph glyph-name="j" unicode="j" horiz-adv-x="416" 
d="M93 -1420c0 -62 53 -116 115 -116s115 54 115 116c0 61 -53 115 -115 115s-115 -54 -115 -115zM37 295c86 0 102 -55 102 -172v-1211h142v1252c1 158 -49 262 -185 262c-47 0 -101 -11 -160 -34v-126c37 19 71 29 101 29z" />
    <glyph glyph-name="k" unicode="k" horiz-adv-x="1028" 
d="M155 -1508h141v858l503 -438h206l-597 519l632 569h-198l-546 -489v489h-141v-1508z" />
    <glyph glyph-name="l" unicode="l" horiz-adv-x="410" 
d="M135 -1508h140v1508h-140v-1508z" />
    <glyph glyph-name="m" unicode="m" horiz-adv-x="1921" 
d="M1011 -855c78 -145 206 -261 401 -261c163 0 279 92 328 216c27 68 42 170 42 306v594h-143v-594c-4 -205 -6 -272 -111 -346c-94 -66 -241 -50 -330 20c-138 108 -163 217 -163 494v426h-139v-557c0 -131 -8 -220 -24 -267c-29 -88 -115 -157 -231 -156
c-146 2 -262 101 -307 216c-26 66 -40 167 -40 303v461h-139v-1088h139v188c84 -127 198 -216 373 -216c192 0 294 100 344 261z" />
    <glyph glyph-name="n" unicode="n" horiz-adv-x="1249" 
d="M296 -893c96 -127 212 -220 408 -223c173 -3 303 101 356 229c29 70 45 179 45 327v560h-139v-519c0 -125 -6 -209 -16 -251c-31 -135 -116 -216 -274 -217c-178 -2 -325 143 -360 292c-13 54 -20 153 -20 296v399h-140v-1088h140v195z" />
    <glyph glyph-name="o" unicode="o" horiz-adv-x="1341" 
d="M104 -541c0 -310 258 -575 567 -575s566 265 566 575c0 302 -251 569 -566 569c-317 0 -567 -267 -567 -569zM1095 -538c9 -231 -197 -441 -424 -441c-228 0 -433 209 -424 441c11 252 169 433 424 433s413 -181 424 -433z" />
    <glyph glyph-name="p" unicode="p" horiz-adv-x="1397" 
d="M733 28c-204 -5 -333 -91 -436 -215v585h-139v-1486h139v200c97 -133 224 -222 432 -228c300 -9 562 267 562 569c0 306 -256 583 -558 575zM718 -981c-239 -6 -436 201 -431 443c4 182 91 311 215 380c134 75 297 77 430 0c116 -67 218 -214 218 -384
c0 -253 -176 -431 -432 -439z" />
    <glyph glyph-name="q" unicode="q" horiz-adv-x="1397" 
d="M668 -1116c208 6 337 95 433 228v-200h138v1486h-138v-585c-103 124 -233 210 -437 215c-302 8 -558 -269 -558 -575c0 -302 262 -577 562 -569zM1110 -538c6 -242 -192 -448 -431 -443c-175 4 -305 97 -373 219c-77 138 -77 302 0 440c68 122 199 222 372 222
c254 0 426 -176 432 -438z" />
    <glyph glyph-name="r" unicode="r" horiz-adv-x="616" 
d="M246 -929c71 -100 144 -187 283 -187c39 0 80 12 124 37l-73 118c-84 -38 -142 -17 -209 39c-44 37 -76 98 -99 178c-35 123 -26 744 -26 744h-143v-1088h143v159z" />
    <glyph glyph-name="s" unicode="s" horiz-adv-x="795" 
d="M103 -828c0 -163 133 -288 298 -288c100 0 201 49 302 147l-90 93c-75 -73 -148 -109 -219 -109c-84 0 -167 70 -165 150c0 35 13 69 40 101c27 33 83 71 168 115c104 54 175 106 212 156c152 210 -28 502 -274 491c-139 -6 -257 -69 -321 -154l88 -100
c71 81 147 121 227 121c147 0 268 -166 163 -288c-26 -31 -85 -69 -176 -116c-98 -51 -165 -101 -200 -150s-53 -106 -53 -169z" />
    <glyph glyph-name="t" unicode="t" horiz-adv-x="694" 
d="M278 -1492h141v404h222v120h-222v968h-141v-968h-191v-120h191v-404z" />
    <glyph glyph-name="u" unicode="u" horiz-adv-x="1245" 
d="M138 -1088h141v508c0 124 7 209 20 256c36 127 156 216 316 216c157 0 272 -87 311 -205c14 -42 21 -131 21 -267v-508h143v534c0 279 -53 414 -210 518c-130 86 -400 86 -530 0c-160 -106 -212 -242 -212 -528v-524z" />
    <glyph glyph-name="v" unicode="v" 
d="M53 -1088h149l364 792l361 -792h150l-498 1088h-25z" />
    <glyph glyph-name="w" unicode="w" horiz-adv-x="1702" 
d="M9 -1088h144l333 790l349 -790h25l348 790l339 -790h146l-472 1088h-27l-346 -779l-349 779h-26z" />
    <glyph glyph-name="x" unicode="x" horiz-adv-x="983" 
d="M32 -1088h168l288 403l288 -403h168l-372 517l419 571h-170l-333 -457l-328 457h-167l412 -571z" />
    <glyph glyph-name="y" unicode="y" horiz-adv-x="1098" 
d="M39 -1088h148l374 838l363 -838h149l-649 1486h-148l210 -480z" />
    <glyph glyph-name="z" unicode="z" horiz-adv-x="870" 
d="M67 -1088h799l-616 964h596v124h-837l616 -965h-558v-123z" />
    <glyph glyph-name="braceleft" unicode="{" horiz-adv-x="719" 
d="M242 -510c167 80 207 186 209 451c0 128 1 204 4 227c15 113 56 128 199 126v157h-56c-140 2 -202 -21 -254 -97c-73 -106 -59 -184 -62 -395c-2 -123 -7 -206 -20 -249c-25 -83 -85 -135 -187 -138v-163c147 -11 195 -96 204 -248c4 -68 5 -395 25 -447
c49 -125 117 -190 294 -185h56v157h-31c-156 5 -172 41 -172 206c0 155 -2 254 -7 297c-20 172 -72 236 -202 301z" />
    <glyph glyph-name="bar" unicode="|" horiz-adv-x="1376" 
d="M616 -1508h143v1906h-143v-1906z" />
    <glyph glyph-name="braceright" unicode="}" horiz-adv-x="719" 
d="M477 -510c-171 -90 -209 -179 -209 -450c0 -147 -3 -234 -9 -259c-21 -79 -54 -94 -163 -95h-31v-157h56c140 -1 200 21 253 98c73 106 60 183 63 394c2 123 8 205 21 249c24 83 84 136 186 139v163c-148 9 -195 96 -204 247c-4 67 -5 396 -25 447
c-48 125 -117 190 -294 185h-56v-157h31c156 -5 172 -40 172 -205c0 -159 3 -261 8 -304c18 -160 80 -240 201 -295z" />
    <glyph glyph-name="asciitilde" unicode="~" horiz-adv-x="1241" 
d="M874 -726c121 -12 121 -38 254 -111v162c-119 61 -136 96 -252 96c-63 0 -151 -28 -265 -77c-133 -57 -134 -72 -237 -83c-119 12 -144 40 -262 105v-160c118 -61 136 -96 254 -96c65 0 153 29 268 81c121 55 135 73 240 83z" />
  </font>
</defs>
</svg>
